<svg xmlns="http://www.w3.org/2000/svg" viewBox="0 0 512 512">
  <defs>
    <linearGradient id="bg" x1="64" y1="38" x2="454" y2="474" gradientUnits="userSpaceOnUse">
      <stop stop-color="#4f82f1"/>
      <stop offset=".58" stop-color="#3157d5"/>
      <stop offset="1" stop-color="#203b91"/>
    </linearGradient>
    <linearGradient id="paper" x1="170" y1="99" x2="326" y2="421" gradientUnits="userSpaceOnUse">
      <stop stop-color="#ffffff"/>
      <stop offset="1" stop-color="#edf4ff"/>
    </linearGradient>
    <filter id="shadow" x="-35%" y="-30%" width="170%" height="180%">
      <feDropShadow dx="0" dy="18" stdDeviation="18" flood-color="#10245e" flood-opacity=".38"/>
    </filter>
  </defs>
  <rect x="18" y="18" width="476" height="476" rx="116" fill="url(#bg)"/>
  <rect x="30" y="30" width="452" height="452" rx="106" fill="none" stroke="#a9c9ff" stroke-opacity=".42" stroke-width="6"/>
  <path d="M150 101h154l78 78v224c0 25-20 45-45 45H150c-25 0-45-20-45-45V146c0-25 20-45 45-45Z" fill="url(#paper)" filter="url(#shadow)"/>
  <path d="M304 101v51c0 30 24 54 54 54h24Z" fill="#c9dcff"/>
  <path d="M111 272c-32 5-55 25-61 55 27-12 52-10 75 7" fill="none" stroke="#8fb6ff" stroke-width="22" stroke-linecap="round"/>
  <path d="M373 272c32 5 55 25 61 55-27-12-52-10-75 7" fill="none" stroke="#8fb6ff" stroke-width="22" stroke-linecap="round"/>
  <circle cx="196" cy="233" r="17" fill="#18316f"/>
  <circle cx="292" cy="233" r="17" fill="#18316f"/>
  <circle cx="202" cy="227" r="5" fill="#ffffff"/>
  <circle cx="298" cy="227" r="5" fill="#ffffff"/>
  <path d="M213 272c16-16 47-20 70-4 7 5 7 15 0 20-23 16-54 12-70-4-4-4-4-8 0-12Z" fill="#ffd24a" stroke="#df9e1c" stroke-width="7" stroke-linejoin="round"/>
  <path d="M218 280h58" fill="none" stroke="#d38a16" stroke-width="5" stroke-linecap="round"/>
  <path d="M164 346h159M164 382h119" fill="none" stroke="#b8caf0" stroke-width="16" stroke-linecap="round"/>
  <path d="m129 83 7-20M103 96 86 82M390 82l10-18M414 105l20-7" fill="none" stroke="#dceaff" stroke-width="9" stroke-linecap="round"/>
</svg>
