<svg xmlns="http://www.w3.org/2000/svg" viewBox="0 0 512 512">
  <defs>
    <linearGradient id="bg" x1="68" y1="42" x2="446" y2="478" gradientUnits="userSpaceOnUse">
      <stop stop-color="#4369e1"/>
      <stop offset="1" stop-color="#243f9f"/>
    </linearGradient>
    <filter id="shadow" x="-30%" y="-30%" width="160%" height="170%">
      <feDropShadow dx="0" dy="18" stdDeviation="18" flood-color="#101c4a" flood-opacity=".34"/>
    </filter>
  </defs>
  <rect x="20" y="20" width="472" height="472" rx="112" fill="url(#bg)"/>
  <path d="M154 91h145l86 86v222c0 25-20 45-45 45H154c-25 0-45-20-45-45V136c0-25 20-45 45-45Z" fill="#fff" filter="url(#shadow)"/>
  <path d="M299 91v65c0 20 16 36 36 36h50Z" fill="#dce4ff"/>
  <rect x="154" y="252" width="187" height="25" rx="12.5" fill="#f0c928"/>
  <rect x="154" y="303" width="152" height="18" rx="9" fill="#c8d2ee"/>
  <rect x="154" y="341" width="173" height="18" rx="9" fill="#c8d2ee"/>
  <path d="M159 214v-76h52c41 0 66 19 66 53 0 35-25 55-66 55h-20v28h-32Zm32-25h19c22 0 33-7 33-21 0-13-11-20-33-20h-19v41Z" fill="#3157d5"/>
</svg>
